<svg width="111" height="110" fill="none" xmlns="http://www.w3.org/2000/svg"><path d="M103.13 55c0-1.752-.098-3.48-.284-5.183l7.157-2.865a54.43 54.43 0 00-1.904-8.311l-7.709.492a47.16 47.16 0 00-4.554-9.341l5.192-5.651a55.498 55.498 0 00-5.38-6.66l-6.723 3.748a48.273 48.273 0 00-8.188-6.468l2.198-7.322a55.624 55.624 0 00-7.758-3.703l-4.415 6.266a48.285 48.285 0 00-10.221-2.299L59.31.163a56.806 56.806 0 00-8.616 0l-1.229 7.54a48.267 48.267 0 00-10.222 2.299l-4.415-6.266a55.57 55.57 0 00-7.758 3.703l2.197 7.322a48.273 48.273 0 00-8.188 6.468l-6.723-3.748a55.39 55.39 0 00-5.379 6.66l5.191 5.651a47.215 47.215 0 00-4.554 9.341l-7.709-.492A54.314 54.314 0 000 46.952l7.158 2.865a47.453 47.453 0 000 10.366L0 63.048a54.433 54.433 0 001.905 8.311l7.709-.492a47.215 47.215 0 004.554 9.341l-5.191 5.653a55.538 55.538 0 005.379 6.659l6.723-3.748a48.267 48.267 0 008.188 6.467l-2.197 7.323a55.57 55.57 0 007.758 3.703l4.415-6.266a48.265 48.265 0 0010.222 2.298l1.229 7.541a56.865 56.865 0 008.616 0l1.231-7.541a48.284 48.284 0 0010.221-2.298l4.415 6.266a55.618 55.618 0 007.758-3.702l-2.198-7.324a48.139 48.139 0 008.188-6.467l6.723 3.748a55.567 55.567 0 005.38-6.659l-5.193-5.653a47.109 47.109 0 004.555-9.341l7.709.492a54.312 54.312 0 001.904-8.311l-7.157-2.865c.186-1.702.284-3.431.284-5.183zM55.038 91.951c-17.22-.038-35.91-14.057-35.91-36.95S37.26 17.997 55.123 18.234C72.985 18.47 90.886 32.108 90.886 55S72.257 91.988 55.038 91.95z" fill="#fff" fill-opacity=".02"/></svg>